<?xml version="1.0" encoding="UTF-8" standalone="no"?>
<!-- Created with Inkscape (http://www.inkscape.org/) -->

<svg
   xmlns:dc="http://purl.org/dc/elements/1.1/"
   xmlns:cc="http://creativecommons.org/ns#"
   xmlns:rdf="http://www.w3.org/1999/02/22-rdf-syntax-ns#"
   xmlns:svg="http://www.w3.org/2000/svg"
   xmlns="http://www.w3.org/2000/svg"
   xmlns:sodipodi="http://sodipodi.sourceforge.net/DTD/sodipodi-0.dtd"
   xmlns:inkscape="http://www.inkscape.org/namespaces/inkscape"
   width="200mm"
   height="200mm"
   viewBox="0 0 200 200"
   version="1.1"
   id="svg8"
   inkscape:version="0.92.3 (2405546, 2018-03-11)"
   sodipodi:docname="logo.svg">
  <defs
     id="defs2" />
  <sodipodi:namedview
     id="base"
     pagecolor="#ffffff"
     bordercolor="#666666"
     borderopacity="1.0"
     inkscape:pageopacity="0.0"
     inkscape:pageshadow="2"
     inkscape:zoom="0.86"
     inkscape:cx="119.27066"
     inkscape:cy="793.26077"
     inkscape:document-units="mm"
     inkscape:current-layer="layer2"
     showgrid="true"
     showguides="false"
     inkscape:window-width="3840"
     inkscape:window-height="2099"
     inkscape:window-x="0"
     inkscape:window-y="0"
     inkscape:window-maximized="1">
    <inkscape:grid
       type="xygrid"
       id="grid4617" />
  </sodipodi:namedview>
  <metadata
     id="metadata5">
    <rdf:RDF>
      <cc:Work
         rdf:about="">
        <dc:format>image/svg+xml</dc:format>
        <dc:type
           rdf:resource="http://purl.org/dc/dcmitype/StillImage" />
        <dc:title></dc:title>
      </cc:Work>
    </rdf:RDF>
  </metadata>
  <g
     inkscape:groupmode="layer"
     id="layer2"
     inkscape:label="bg"
     transform="translate(0,-97)">
    <path
       style="fill:#014421;fill-opacity:1;stroke:#000000;stroke-width:1.44960821;stroke-opacity:1"
       d="M 374.90234 36.216797 L 349.74805 50.740234 A 322.02012 322.02012 0 0 0 109.92188 189.20117 L 83.990234 204.17383 L 83.990234 235.1582 A 322.02012 322.02012 0 0 0 53.224609 371.625 A 322.02012 322.02012 0 0 0 83.990234 508.15625 L 83.990234 540.0918 L 111.81055 556.1543 A 322.02012 322.02012 0 0 0 347.55273 692.25781 L 374.90234 708.04883 L 402.10742 692.3418 A 322.02012 322.02012 0 0 0 639.72461 555.1543 L 665.81445 540.0918 L 665.81445 509.50781 A 322.02012 322.02012 0 0 0 697.26367 371.625 A 322.02012 322.02012 0 0 0 665.81445 233.56445 L 665.81445 204.17383 L 640.39453 189.49805 A 322.02012 322.02012 0 0 0 400.25781 50.855469 L 374.90234 36.216797 z "
       transform="matrix(0.26458333,0,0,0.26458333,0,97)"
       id="path4613" />
  </g>
  <g
     inkscape:label="Layer 1"
     inkscape:groupmode="layer"
     id="layer1"
     transform="translate(0,-97)">
    <path
       style="fill:#f9a602;fill-opacity:1;stroke:#000000;stroke-width:0.29574868;stroke-opacity:1"
       d="m 95.057942,162.19643 -11.92093,0.92839 16.07986,-32.89968 17.509598,32.38376 -12.43943,-0.41247 v 94.696 h -9.229098 z"
       id="rect4546"
       inkscape:connector-curvature="0"
       sodipodi:nodetypes="cccccccc" />
    <path
       style="fill:#f9a602;fill-opacity:1;stroke:#000000;stroke-width:0.29574868;stroke-opacity:1"
       d="m 67.523371,178.15513 -7.772901,9.08584 -11.893413,-34.63377 35.279955,10.51762 -9.087692,8.50436 66.9602,66.96018 -6.52597,6.52596 z"
       id="rect4546-3"
       inkscape:connector-curvature="0"
       sodipodi:nodetypes="cccccccc" />
    <path
       style="fill:#f9a602;fill-opacity:1;stroke:#000000;stroke-width:0.29574868;stroke-opacity:1"
       d="m 125.81231,170.38181 -9.08584,-7.77291 34.63377,-11.89341 -10.51762,35.27993 -8.50436,-9.08767 -66.960175,66.9602 -6.525949,-6.52597 z"
       id="rect4546-6"
       inkscape:connector-curvature="0"
       sodipodi:nodetypes="cccccccc" />
  </g>
</svg>
